<svg id="logo" xmlns="http://www.w3.org/2000/svg" viewBox="0 0 486.12 502.07"><defs>
<style>
.cls-1{fill:#52658f;}.cls-2{fill:#333a56;}.cls-3{fill:#8e8e8e;}


</style>
</defs><title>mtmi_logo</title><g id="arcs"><g id="top-arc"><path class="cls-1" d="M486.12,243.07H443.23c0-112.25-91-203.24-203.23-203.24-111.37,0-201.82,89.57-203.22,200.61,0,.88,0,1.75,0,2.63H0C0,108.82,108.82,0,243.06,0,374.39,0,481.39,104.16,486,234.38,486.06,237.27,486.12,240.16,486.12,243.07Z"/><path class="cls-2" d="M486.12,243.07H443.23c0-112.25-91-203.24-203.23-203.24-111.37,0-201.82,89.57-203.22,200.61C38.19,117.56,138.24,18.38,261.44,18.38c121.18,0,220,95.94,224.52,216C486.06,237.27,486.12,240.16,486.12,243.07Z"/></g><g id="btm-arc"><path class="cls-1" d="M486.12,259H443.23c0,112.25-91,203.24-203.23,203.24-111.37,0-201.82-89.57-203.22-200.61,0-.88,0-1.75,0-2.63H0C0,393.25,108.82,502.07,243.06,502.07c131.33,0,238.33-104.16,242.9-234.38C486.06,264.8,486.12,261.91,486.12,259Z"/><path class="cls-2" d="M486.12,259H443.23c0,112.25-91,203.24-203.23,203.24-111.37,0-201.82-89.57-203.22-200.61,1.41,122.88,101.46,222.06,224.66,222.06,121.18,0,220-95.94,224.52-216C486.06,264.8,486.12,261.91,486.12,259Z"/></g></g><g id="typo"><path class="cls-3" d="M161.05,298.61V225l-31.62,56.41h-6.84L90.84,225v73.57H78.78V203.46H91.51L126,265.24l34.57-61.78h12.59v95.15Z"/><path class="cls-3" d="M264.5,214.19H231.67v84.42H219.61V214.19H186.78V203.46H264.5Z"/><path class="cls-3" d="M360.44,298.61V225l-31.62,56.41H322L290.23,225v73.57H278.17V203.46H290.9l34.44,61.78,34.57-61.78H372.5v95.15Z"/><path class="cls-3" d="M395.28,298.61V203.46h12.06v95.15Z"/></g></svg>